<!DOCTYPE svg PUBLIC "-//W3C//DTD SVG 1.1//EN" "http://www.w3.org/Graphics/SVG/1.1/DTD/svg11.dtd">
<!-- Uploaded to: SVG Repo, www.svgrepo.com, Transformed by: SVG Repo Mixer Tools -->
<svg fill="#ffffff" height="800px" width="800px" version="1.1" id="Layer_1" xmlns="http://www.w3.org/2000/svg" xmlns:xlink="http://www.w3.org/1999/xlink" viewBox="0 0 512 512" xml:space="preserve">
<g id="SVGRepo_bgCarrier" stroke-width="0"/>
<g id="SVGRepo_tracerCarrier" stroke-linecap="round" stroke-linejoin="round"/>
<g id="SVGRepo_iconCarrier"> <g> <g> <path d="M189.833,161.349c-43.6,5.276-84.135,24.327-115.886,53.735h116.546v-53.815L189.833,161.349z"/> </g> </g> <g> <g> <path d="M357.547,160.303c-4.969-10.912-16.309-17.276-28.209-15.836l-115.266,13.948v56.669h168.419L357.547,160.303z"/> </g> </g> <g> <g> <path d="M460.314,238.662H401.08c-0.172,0.004-0.345,0.004-0.518,0H55.034c-0.909,0-2.641-0.297-2.641-0.297 c-2.385,3.012-4.691,6.096-6.917,9.254c-0.13,0.185-0.266,0.367-0.408,0.543l-25.265,31.788h-2.119 C7.918,279.951,0,287.869,0,297.635c0,9.767,7.918,17.686,17.684,17.686h1.167v13.287h39.263 c3.55-23.829,24.144-42.169,48.946-42.169c24.801,0,45.395,18.339,48.945,42.169h222.197c3.55-23.829,24.144-42.169,48.944-42.169 c24.802,0,45.396,18.339,48.946,42.169H512v-38.26C512,261.849,488.813,238.662,460.314,238.662z M281.665,290.58h-22.989 c-6.51,0-11.79-5.278-11.79-11.79s5.279-11.79,11.79-11.79h22.989c6.51,0,11.79,5.278,11.79,11.79S288.176,290.58,281.665,290.58z "/> </g> </g> <g> <g> <path d="M107.06,304.123c-17.538,0-31.807,14.269-31.807,31.806s14.269,31.806,31.807,31.806s31.806-14.268,31.806-31.806 C138.866,318.392,124.597,304.123,107.06,304.123z"/> </g> </g> <g> <g> <path d="M427.147,304.123c-17.537,0-31.806,14.269-31.806,31.806s14.269,31.806,31.806,31.806 c17.539,0,31.807-14.268,31.807-31.806C458.954,318.392,444.685,304.123,427.147,304.123z"/> </g> </g> </g>
</svg>